<?xml version="1.0" encoding="UTF-8" standalone="no"?>
<svg
   xmlns:dc="http://purl.org/dc/elements/1.1/"
   xmlns:cc="http://creativecommons.org/ns#"
   xmlns:rdf="http://www.w3.org/1999/02/22-rdf-syntax-ns#"
   xmlns:svg="http://www.w3.org/2000/svg"
   xmlns="http://www.w3.org/2000/svg"
   xmlns:sodipodi="http://sodipodi.sourceforge.net/DTD/sodipodi-0.dtd"
   xmlns:inkscape="http://www.inkscape.org/namespaces/inkscape"
   sodipodi:docname="hi.svg"
   inkscape:version="1.0 (4035a4fb49, 2020-05-01)"
   id="svg8"
   version="1.1"
   viewBox="0 0 52.916665 52.916668"
   height="200"
   width="200">
  <defs
     id="defs2">
    <rect
       id="rect28"
       height="29.226401"
       width="28.552291"
       y="11.773958"
       x="20.769792" />
  </defs>
  <sodipodi:namedview
     inkscape:window-maximized="1"
     inkscape:window-y="-8"
     inkscape:window-x="-8"
     inkscape:window-height="705"
     inkscape:window-width="1366"
     inkscape:snap-bbox="false"
     units="px"
     showgrid="false"
     inkscape:document-rotation="0"
     inkscape:current-layer="layer1"
     inkscape:document-units="mm"
     inkscape:cy="102.85714"
     inkscape:cx="106.49728"
     inkscape:zoom="2"
     inkscape:pageshadow="2"
     inkscape:pageopacity="0.0"
     borderopacity="1.0"
     bordercolor="#666666"
     pagecolor="#ffffff"
     id="base" />
  <metadata
     id="metadata5">
    <rdf:RDF>
      <cc:Work
         rdf:about="">
        <dc:format>image/svg+xml</dc:format>
        <dc:type
           rdf:resource="http://purl.org/dc/dcmitype/StillImage" />
        <dc:title></dc:title>
      </cc:Work>
    </rdf:RDF>
  </metadata>
  <g
     id="layer1"
     inkscape:groupmode="layer"
     inkscape:label="Layer 1">
    <path
       id="path24"
       d="m 1.0993632,26.061527 c 2.2562593,-0.663546 4.4097095,-1.457475 6.6124799,-2.247435 0.4405289,-0.157982 0.8340711,-0.404167 1.2902402,-0.528808 0.1530031,-0.0418 0.3395866,0.05912 0.4838398,0 0.068,-0.02787 0.1075196,-0.08813 0.16128,-0.132202 0.1612799,-0.08813 0.3023469,-0.208615 0.4838409,-0.264404 0.256669,-0.0789 0.555902,-0.04094 0.8064,-0.132203 0.245632,-0.08949 0.398053,-0.309811 0.645119,-0.396606 0.14824,-0.05207 0.327376,0.03207 0.48384,0 0.07376,-0.01512 0.09327,-0.104331 0.16128,-0.132201 0.418697,-0.171605 1.010538,-0.07196 1.45152,-0.132203 0.16769,-0.02291 0.363629,-0.03367 0.483839,-0.132202 0.03802,-0.03116 -0.051,-0.118266 0,-0.132201 0.153004,-0.0418 0.327376,0.03207 0.483841,0 0.28899,-0.05922 0.63618,-0.328673 0.96768,-0.396606 0.05532,-0.01133 1.421202,-0.25198 1.451519,-0.264405 0.316395,-0.129675 -0.01235,-0.264404 0.32256,-0.264404 -0.34984,-1.988593 -0.09638,-4.046648 0.483841,-5.949092 0.258728,-0.84832 -0.007,-2.684311 -0.16128,-3.569455 -0.05983,-0.34331 0.08283,-0.718169 0,-1.057617 -0.08927,-0.3658627 -0.203515,-0.6326707 -0.32256,-0.9254134 -0.0953,-0.234342 -0.243886,-3.1051357 -0.16128,-3.1728488 0.266098,-0.2181222 0.75264,0 1.128961,0 1.220212,0 1.87968,0.010351 3.38688,-0.132202 1.577701,-0.1492212 3.09335,-0.6850271 4.677119,-0.7932123 1.902254,-0.1299406 3.902232,0 5.80608,0 1.512203,0 3.163614,-0.1240628 4.67712,0 1.789562,0.1466913 0.405309,0.132202 1.290241,0.132202 1.774079,0 3.548158,0 5.32224,0 0.57832,0 1.366107,-0.1166547 1.93536,0 0.329855,0.067596 0.634273,0.2097453 0.96768,0.2644042 1.060277,0.1738231 1.941998,-0.1294811 2.903039,0.264404 0.262025,0.1073913 1.234706,-0.1777235 1.45152,0 0.04255,0.034874 0,2.5538252 0,2.7762432 0,2.0418051 0.225233,4.1826351 0,6.2134951 -0.04963,0.447555 -0.250102,0.876563 -0.32256,1.322021 -0.392033,0.600595 -0.07796,1.236097 -0.16128,1.850828 -0.09664,0.712978 -0.381586,1.402782 -0.48384,2.115233 -0.132059,0.920117 -0.104844,1.850936 -0.16128,2.776243 -0.05363,0.879145 0.06699,1.765446 0,2.644041 -0.0204,0.267529 -0.107514,0.528808 -0.161281,0.793212 -0.05377,0.616943 -0.121619,1.233169 -0.161279,1.850829 -0.08145,1.268429 0,2.562676 0,3.83386 0,2.776243 0,5.552486 0,8.328729 0,0.176269 0,0.352539 0,0.528808 0.05377,0.04407 0.137237,0.07308 0.161279,0.132202 0.313762,0.771575 -0.211034,2.307921 0,3.172849 0.01491,0.06111 0.137239,0.07308 0.161281,0.132202 0.193536,0.475927 -0.193536,1.110497 0,1.586425 0.07374,0.181348 0.326949,0.257209 0.16128,0.528808 -0.03099,0.05081 -4.764935,0.396606 -5.160961,0.396606 -0.866376,0 -1.706624,0.132202 -2.580479,0.132202 -4.851205,0 -9.662103,-0.132202 -14.5152,-0.132202 -2.829582,0 -5.729657,0.177699 -8.54784,0 -0.945761,-0.05964 -1.657475,-0.396606 -2.580479,-0.396606 -0.107527,0 -0.246533,0.06232 -0.322561,0 -0.242935,-0.199136 0.427603,-3.666422 0.483839,-3.966061 0.109783,-0.584936 0.342794,-1.140544 0.48384,-1.718627 0.235008,-0.963182 0.143752,-1.536132 0.483841,-2.511839 0.08252,-0.236757 -0.03749,-0.547393 0,-0.793213 0.302425,-1.98319 0.32256,-3.939633 0.32256,-5.949092 0,-0.248668 0.05291,-2.071866 0,-2.115232 -0.24464,-0.200533 -1.893012,-0.750481 -2.25792,-0.793212 -0.212879,-0.02493 -0.435201,0.03823 -0.64512,0 -0.474153,0.07695 -0.73176,-0.315211 -1.128959,-0.396607 C 12.356084,28.00477 10.83052,28.07694 9.3246432,27.912356 7.9923107,27.76674 8.2038969,27.675739 7.2280033,27.51575 6.9695199,27.47338 6.68177,27.5513 6.4216031,27.51575 5.4960396,27.389302 4.6021359,27.245145 3.6798432,27.119144 c -0.1612801,-0.02204 -0.3225599,0.04407 -0.48384,0 -0.522469,-0.142757 -1.6708656,-0.795859 -2.09664,-1.057617 z"
       style="fill:none;stroke:#000000;stroke-width:0.292038px;stroke-linecap:butt;stroke-linejoin:miter;stroke-opacity:1" />
    <text
       transform="matrix(1.4587416,0,0,1.5552704,-9.8089573,-3.2835416)"
       y="0"
       x="11.823558"
       style="font-style:normal;font-weight:normal;font-size:14.1111px;line-height:125%;font-family:sans-serif;letter-spacing:0px;word-spacing:0px;white-space:pre;shape-inside:url(#rect28);fill:#000000;fill-opacity:1;stroke:none;stroke-width:0.264583px;stroke-linecap:butt;stroke-linejoin:miter;stroke-opacity:1;"
       id="text26"
       xml:space="preserve"><tspan
         x="27.783643"
         y="24.258454"><tspan
           style="text-align:center;text-anchor:middle">Hi</tspan></tspan></text>
    <path
       transform="scale(0.26458333)"
       d="M 235 23 L 235 59.960938 C 234.00334 60.141034 233.01365 60.325232 232 60.5 C 224.51868 61.789884 217.69274 62.439702 209.96289 62.490234 C 209.97202 62.495424 209.99219 62.494139 210 62.5 C 210.56569 62.924267 211 63.500003 211.5 64 C 212.16667 64.333317 212.87982 64.58655 213.5 65 C 216.59904 67.066026 219.52461 69.768461 222.5 72 C 226.67507 75.131305 230.81536 78.3075 235 81.419922 L 235 124 L 347.5 124 L 347.5 23 L 235 23 z M 209.96289 62.490234 C 209.66036 62.318341 208.67645 62.5 209 62.5 C 209.32595 62.5 209.64024 62.492344 209.96289 62.490234 z "
       style="fill:none;fill-opacity:0.859296;stroke:#000000;stroke-width:0.999999;stroke-opacity:1"
       id="rect40" />
  </g>
</svg>
